<svg width="14" height="16" viewBox="0 0 14 16" fill="none" xmlns="http://www.w3.org/2000/svg">
<path d="M11.366 0H4.6341C3.98984 0 3.46976 0.522411 3.46976 1.16551V14.8357C3.46976 15.4782 3.98984 16 4.6341 16H11.366C12.0091 16 12.5303 15.4782 12.5303 14.8357V1.16551C12.5303 0.522411 12.0091 0 11.366 0ZM6.33894 0.70782H9.66231C9.74627 0.70782 9.81448 0.833175 9.81448 0.988266C9.81448 1.14336 9.74627 1.2693 9.66231 1.2693H6.33894C6.25439 1.2693 6.18734 1.14336 6.18734 0.988266C6.18734 0.833175 6.25439 0.70782 6.33894 0.70782ZM8.00062 14.8496C7.59074 14.8496 7.25724 14.5161 7.25724 14.1057C7.25724 13.6952 7.59074 13.3629 8.00062 13.3629C8.40934 13.3629 8.74284 13.6952 8.74284 14.1057C8.74284 14.5161 8.40934 14.8496 8.00062 14.8496ZM11.6581 12.3023H4.34258V1.96662H11.6581V12.3023Z" fill="#737D90"/>
</svg>
