<svg width="11" height="18" viewBox="0 0 11 18" fill="none" xmlns="http://www.w3.org/2000/svg">
<path d="M10.4057 0.564369L7.8122 0.560791C4.89847 0.560791 3.01548 2.22191 3.01548 4.79294V6.74425H0.407807C0.182473 6.74425 0 6.90133 0 7.09508V9.9223C0 10.1161 0.182681 10.273 0.407807 10.273H3.01548V17.4069C3.01548 17.6007 3.19795 17.7576 3.42329 17.7576H6.82556C7.0509 17.7576 7.23337 17.6005 7.23337 17.4069V10.273H10.2823C10.5077 10.273 10.6902 10.1161 10.6902 9.9223L10.6914 7.09508C10.6914 7.00205 10.6483 6.91296 10.572 6.84712C10.4956 6.78128 10.3916 6.74425 10.2834 6.74425H7.23337V5.0901C7.23337 4.29505 7.45371 3.89145 8.65819 3.89145L10.4053 3.89091C10.6304 3.89091 10.8129 3.73383 10.8129 3.54026V0.915021C10.8129 0.721626 10.6306 0.564727 10.4057 0.564369Z" fill="#3999E5"/>
</svg>
