<svg width="20" height="21" viewBox="0 0 20 21" fill="none" xmlns="http://www.w3.org/2000/svg">
<g clip-path="url(#clip0_1447_210)">
<path d="M13.75 0.841064H6.25C2.79875 0.841064 0 3.63981 0 7.09106V14.5911C0 18.0423 2.79875 20.8411 6.25 20.8411H13.75C17.2013 20.8411 20 18.0423 20 14.5911V7.09106C20 3.63981 17.2013 0.841064 13.75 0.841064ZM18.125 14.5911C18.125 17.0036 16.1625 18.9661 13.75 18.9661H6.25C3.8375 18.9661 1.875 17.0036 1.875 14.5911V7.09106C1.875 4.67856 3.8375 2.71606 6.25 2.71606H13.75C16.1625 2.71606 18.125 4.67856 18.125 7.09106V14.5911Z" fill="#3999E5"/>
<path d="M10 5.84106C7.23875 5.84106 5 8.07981 5 10.8411C5 13.6023 7.23875 15.8411 10 15.8411C12.7613 15.8411 15 13.6023 15 10.8411C15 8.07981 12.7613 5.84106 10 5.84106ZM10 13.9661C8.2775 13.9661 6.875 12.5636 6.875 10.8411C6.875 9.11731 8.2775 7.71606 10 7.71606C11.7225 7.71606 13.125 9.11731 13.125 10.8411C13.125 12.5636 11.7225 13.9661 10 13.9661Z" fill="#3999E5"/>
<path d="M15.375 6.1323C15.743 6.1323 16.0412 5.83401 16.0412 5.46605C16.0412 5.09809 15.743 4.7998 15.375 4.7998C15.007 4.7998 14.7087 5.09809 14.7087 5.46605C14.7087 5.83401 15.007 6.1323 15.375 6.1323Z" fill="#3999E5"/>
</g>
<defs>
<clipPath id="clip0_1447_210">
<rect width="20" height="20" fill="white" transform="translate(0 0.841064)"/>
</clipPath>
</defs>
</svg>
