<svg width="20" height="15" viewBox="0 0 20 15" fill="none" xmlns="http://www.w3.org/2000/svg">
<path d="M20 1.93325C19.2639 2.21371 18.474 2.40392 17.6441 2.48884C18.4915 2.05253 19.1401 1.3605 19.4475 0.538416C18.6527 0.942459 17.7754 1.23585 16.8405 1.39489C16.0919 0.708221 15.0271 0.280518 13.8461 0.280518C11.5803 0.280518 9.7431 1.86019 9.7431 3.80738C9.7431 4.08354 9.77935 4.35327 9.84935 4.6112C6.44 4.46395 3.41683 3.05945 1.39346 0.925262C1.03977 1.44539 0.838562 2.05144 0.838562 2.69837C0.838562 3.92236 1.56343 5.00234 2.66324 5.63419C1.99085 5.61486 1.35846 5.45581 0.804837 5.19145V5.23551C0.804837 6.94414 2.21957 8.37013 4.09546 8.69468C3.75176 8.7742 3.38935 8.81826 3.01441 8.81826C2.74948 8.81826 2.49327 8.7957 2.24206 8.75271C2.76444 10.1551 4.27918 11.1749 6.07386 11.2028C4.67036 12.1485 2.90069 12.7105 0.978562 12.7105C0.647386 12.7105 0.321176 12.6933 0 12.6621C1.81591 13.6648 3.97176 14.2494 6.28882 14.2494C13.8361 14.2494 17.9616 8.87416 17.9616 4.21252L17.9479 3.75582C18.754 3.26146 19.4513 2.64035 20 1.93325Z" fill="#3999E5"/>
</svg>
